<mxfile host="app.diagrams.net" modified="2024-01-15T10:36:17.769Z" agent="Mozilla/5.0 (Macintosh; Intel Mac OS X 10_15_7) AppleWebKit/605.1.15 (KHTML, like Gecko) Version/17.0 Safari/605.1.15" etag="-5UbYLSH7uaJgJE1C14e" version="22.1.18" type="github" pages="2">
  <diagram name="Page-1" id="kJrWrPGSgi8lEbWL6mTn">
    <mxGraphModel dx="977" dy="644" grid="0" gridSize="10" guides="1" tooltips="1" connect="0" arrows="1" fold="1" page="1" pageScale="1" pageWidth="1169" pageHeight="827" background="none" math="0" shadow="0">
      <root>
        <mxCell id="0" />
        <mxCell id="1" parent="0" />
        <mxCell id="UyxpPyiTh_7J5SObI_an-33" style="edgeStyle=orthogonalEdgeStyle;rounded=0;orthogonalLoop=1;jettySize=auto;html=1;entryX=0;entryY=0.5;entryDx=0;entryDy=0;" parent="1" source="IYlS7my690wejQT6I9Gt-1" target="IYlS7my690wejQT6I9Gt-67" edge="1">
          <mxGeometry relative="1" as="geometry">
            <Array as="points">
              <mxPoint x="570" y="165" />
              <mxPoint x="570" y="270" />
            </Array>
          </mxGeometry>
        </mxCell>
        <mxCell id="IYlS7my690wejQT6I9Gt-1" value="Perceived Utility&amp;nbsp;" style="ellipse;whiteSpace=wrap;html=1;aspect=fixed;" parent="1" vertex="1">
          <mxGeometry x="420" y="125" width="90" height="90" as="geometry" />
        </mxCell>
        <mxCell id="IYlS7my690wejQT6I9Gt-89" style="edgeStyle=orthogonalEdgeStyle;rounded=0;orthogonalLoop=1;jettySize=auto;html=1;entryX=0;entryY=0.5;entryDx=0;entryDy=0;" parent="1" source="IYlS7my690wejQT6I9Gt-4" target="IYlS7my690wejQT6I9Gt-67" edge="1">
          <mxGeometry relative="1" as="geometry">
            <mxPoint x="570" y="260" as="targetPoint" />
            <Array as="points">
              <mxPoint x="570" y="360" />
              <mxPoint x="570" y="270" />
            </Array>
          </mxGeometry>
        </mxCell>
        <mxCell id="IYlS7my690wejQT6I9Gt-4" value="Personal &lt;br&gt;Norms" style="ellipse;whiteSpace=wrap;html=1;aspect=fixed;" parent="1" vertex="1">
          <mxGeometry x="420" y="324" width="90" height="90" as="geometry" />
        </mxCell>
        <mxCell id="UyxpPyiTh_7J5SObI_an-12" value="" style="edgeStyle=orthogonalEdgeStyle;rounded=0;orthogonalLoop=1;jettySize=auto;html=1;" parent="1" source="IYlS7my690wejQT6I9Gt-6" target="IYlS7my690wejQT6I9Gt-1" edge="1">
          <mxGeometry relative="1" as="geometry" />
        </mxCell>
        <mxCell id="fFxdtxSOvmqtfOTRgSrr-30" style="edgeStyle=orthogonalEdgeStyle;rounded=0;orthogonalLoop=1;jettySize=auto;html=1;exitX=0.5;exitY=0;exitDx=0;exitDy=0;" parent="1" source="IYlS7my690wejQT6I9Gt-6" target="IYlS7my690wejQT6I9Gt-67" edge="1">
          <mxGeometry relative="1" as="geometry" />
        </mxCell>
        <mxCell id="IYlS7my690wejQT6I9Gt-6" value="Perception of Costs" style="ellipse;whiteSpace=wrap;html=1;aspect=fixed;" parent="1" vertex="1">
          <mxGeometry x="230" y="125" width="90" height="90" as="geometry" />
        </mxCell>
        <mxCell id="IYlS7my690wejQT6I9Gt-29" value="PBC-1" style="rounded=0;whiteSpace=wrap;html=1;" parent="1" vertex="1">
          <mxGeometry x="140" y="250" width="50" height="20" as="geometry" />
        </mxCell>
        <mxCell id="IYlS7my690wejQT6I9Gt-33" value="PBC-2" style="rounded=0;whiteSpace=wrap;html=1;" parent="1" vertex="1">
          <mxGeometry x="140" y="270" width="50" height="20" as="geometry" />
        </mxCell>
        <mxCell id="IYlS7my690wejQT6I9Gt-67" value="EV Adoption Intention" style="ellipse;whiteSpace=wrap;html=1;aspect=fixed;strokeWidth=3;" parent="1" vertex="1">
          <mxGeometry x="620" y="230" width="80" height="80" as="geometry" />
        </mxCell>
        <mxCell id="UyxpPyiTh_7J5SObI_an-15" style="edgeStyle=orthogonalEdgeStyle;rounded=0;orthogonalLoop=1;jettySize=auto;html=1;" parent="1" source="IYlS7my690wejQT6I9Gt-5" target="IYlS7my690wejQT6I9Gt-1" edge="1">
          <mxGeometry relative="1" as="geometry" />
        </mxCell>
        <mxCell id="fFxdtxSOvmqtfOTRgSrr-28" style="edgeStyle=orthogonalEdgeStyle;rounded=0;orthogonalLoop=1;jettySize=auto;html=1;" parent="1" source="IYlS7my690wejQT6I9Gt-5" target="IYlS7my690wejQT6I9Gt-67" edge="1">
          <mxGeometry relative="1" as="geometry">
            <mxPoint x="330" y="240" as="sourcePoint" />
          </mxGeometry>
        </mxCell>
        <mxCell id="IYlS7my690wejQT6I9Gt-5" value="Perceived Behavioral Control" style="ellipse;whiteSpace=wrap;html=1;aspect=fixed;" parent="1" vertex="1">
          <mxGeometry x="230" y="225" width="90" height="90" as="geometry" />
        </mxCell>
        <mxCell id="UyxpPyiTh_7J5SObI_an-20" value="POC-1" style="rounded=0;whiteSpace=wrap;html=1;" parent="1" vertex="1">
          <mxGeometry x="140" y="140" width="50" height="20" as="geometry" />
        </mxCell>
        <mxCell id="UyxpPyiTh_7J5SObI_an-21" value="POC-2" style="rounded=0;whiteSpace=wrap;html=1;" parent="1" vertex="1">
          <mxGeometry x="140" y="160" width="50" height="20" as="geometry" />
        </mxCell>
        <mxCell id="UyxpPyiTh_7J5SObI_an-22" value="POC-3" style="rounded=0;whiteSpace=wrap;html=1;" parent="1" vertex="1">
          <mxGeometry x="140" y="180" width="50" height="20" as="geometry" />
        </mxCell>
        <mxCell id="UyxpPyiTh_7J5SObI_an-23" value="" style="endArrow=classic;html=1;rounded=0;exitX=0;exitY=0.5;exitDx=0;exitDy=0;entryX=1;entryY=0.5;entryDx=0;entryDy=0;" parent="1" source="IYlS7my690wejQT6I9Gt-6" target="UyxpPyiTh_7J5SObI_an-20" edge="1">
          <mxGeometry width="50" height="50" relative="1" as="geometry">
            <mxPoint x="580" y="255" as="sourcePoint" />
            <mxPoint x="630" y="205" as="targetPoint" />
          </mxGeometry>
        </mxCell>
        <mxCell id="UyxpPyiTh_7J5SObI_an-25" value="" style="endArrow=classic;html=1;rounded=0;entryX=1;entryY=0.5;entryDx=0;entryDy=0;exitX=0;exitY=0.5;exitDx=0;exitDy=0;" parent="1" source="IYlS7my690wejQT6I9Gt-6" target="UyxpPyiTh_7J5SObI_an-22" edge="1">
          <mxGeometry width="50" height="50" relative="1" as="geometry">
            <mxPoint x="210" y="125" as="sourcePoint" />
            <mxPoint x="170" y="95" as="targetPoint" />
          </mxGeometry>
        </mxCell>
        <mxCell id="UyxpPyiTh_7J5SObI_an-30" value="" style="endArrow=classic;html=1;rounded=0;exitX=0;exitY=0.5;exitDx=0;exitDy=0;entryX=1;entryY=0.5;entryDx=0;entryDy=0;" parent="1" source="IYlS7my690wejQT6I9Gt-5" target="IYlS7my690wejQT6I9Gt-33" edge="1">
          <mxGeometry width="50" height="50" relative="1" as="geometry">
            <mxPoint x="200" y="210" as="sourcePoint" />
            <mxPoint x="190" y="220" as="targetPoint" />
          </mxGeometry>
        </mxCell>
        <mxCell id="UyxpPyiTh_7J5SObI_an-62" value="" style="endArrow=classic;html=1;rounded=0;entryX=1;entryY=0.5;entryDx=0;entryDy=0;" parent="1" target="UyxpPyiTh_7J5SObI_an-21" edge="1">
          <mxGeometry width="50" height="50" relative="1" as="geometry">
            <mxPoint x="230" y="170" as="sourcePoint" />
            <mxPoint x="200" y="110" as="targetPoint" />
          </mxGeometry>
        </mxCell>
        <mxCell id="UyxpPyiTh_7J5SObI_an-66" value="" style="endArrow=classic;html=1;rounded=0;exitX=0.5;exitY=1;exitDx=0;exitDy=0;entryX=0.5;entryY=1;entryDx=0;entryDy=0;" parent="1" source="IYlS7my690wejQT6I9Gt-67" target="UyxpPyiTh_7J5SObI_an-69" edge="1">
          <mxGeometry width="50" height="50" relative="1" as="geometry">
            <mxPoint x="800" y="50" as="sourcePoint" />
            <mxPoint x="658" y="190" as="targetPoint" />
          </mxGeometry>
        </mxCell>
        <mxCell id="UyxpPyiTh_7J5SObI_an-69" value="INT" style="rounded=0;whiteSpace=wrap;html=1;" parent="1" vertex="1">
          <mxGeometry x="632.5" y="359" width="55" height="20" as="geometry" />
        </mxCell>
        <mxCell id="UyxpPyiTh_7J5SObI_an-71" value="" style="endArrow=classic;html=1;rounded=0;exitX=0;exitY=0.5;exitDx=0;exitDy=0;entryX=1;entryY=0.5;entryDx=0;entryDy=0;" parent="1" source="IYlS7my690wejQT6I9Gt-5" target="IYlS7my690wejQT6I9Gt-29" edge="1">
          <mxGeometry width="50" height="50" relative="1" as="geometry">
            <mxPoint x="240" y="230" as="sourcePoint" />
            <mxPoint x="190" y="200" as="targetPoint" />
          </mxGeometry>
        </mxCell>
        <mxCell id="fFxdtxSOvmqtfOTRgSrr-8" style="edgeStyle=orthogonalEdgeStyle;rounded=0;orthogonalLoop=1;jettySize=auto;html=1;entryX=0;entryY=0.5;entryDx=0;entryDy=0;" parent="1" source="fFxdtxSOvmqtfOTRgSrr-3" target="IYlS7my690wejQT6I9Gt-4" edge="1">
          <mxGeometry relative="1" as="geometry" />
        </mxCell>
        <mxCell id="fFxdtxSOvmqtfOTRgSrr-3" value="Environmental Considerations" style="ellipse;whiteSpace=wrap;html=1;aspect=fixed;" parent="1" vertex="1">
          <mxGeometry x="230" y="324" width="90" height="90" as="geometry" />
        </mxCell>
        <mxCell id="3aYb_1MQCvMzoAkba6OH-4" style="edgeStyle=orthogonalEdgeStyle;rounded=0;orthogonalLoop=1;jettySize=auto;html=1;entryX=0.511;entryY=0.989;entryDx=0;entryDy=0;entryPerimeter=0;" parent="1" source="fFxdtxSOvmqtfOTRgSrr-5" target="IYlS7my690wejQT6I9Gt-4" edge="1">
          <mxGeometry relative="1" as="geometry" />
        </mxCell>
        <mxCell id="fFxdtxSOvmqtfOTRgSrr-5" value="Risk Perceptions" style="ellipse;whiteSpace=wrap;html=1;aspect=fixed;" parent="1" vertex="1">
          <mxGeometry x="230" y="420" width="90" height="90" as="geometry" />
        </mxCell>
        <mxCell id="fFxdtxSOvmqtfOTRgSrr-9" value="EC-1" style="rounded=0;whiteSpace=wrap;html=1;" parent="1" vertex="1">
          <mxGeometry x="140" y="338.5" width="50" height="21" as="geometry" />
        </mxCell>
        <mxCell id="fFxdtxSOvmqtfOTRgSrr-10" value="EC-2" style="rounded=0;whiteSpace=wrap;html=1;" parent="1" vertex="1">
          <mxGeometry x="140" y="359.5" width="50" height="20" as="geometry" />
        </mxCell>
        <mxCell id="fFxdtxSOvmqtfOTRgSrr-11" value="" style="endArrow=classic;html=1;rounded=0;entryX=1;entryY=0.5;entryDx=0;entryDy=0;exitX=0.002;exitY=0.509;exitDx=0;exitDy=0;exitPerimeter=0;" parent="1" source="fFxdtxSOvmqtfOTRgSrr-3" target="fFxdtxSOvmqtfOTRgSrr-10" edge="1">
          <mxGeometry width="50" height="50" relative="1" as="geometry">
            <mxPoint x="230" y="369" as="sourcePoint" />
            <mxPoint x="190" y="320" as="targetPoint" />
            <Array as="points" />
          </mxGeometry>
        </mxCell>
        <mxCell id="fFxdtxSOvmqtfOTRgSrr-17" value="RP-1" style="rounded=0;whiteSpace=wrap;html=1;" parent="1" vertex="1">
          <mxGeometry x="140" y="435" width="50" height="20" as="geometry" />
        </mxCell>
        <mxCell id="fFxdtxSOvmqtfOTRgSrr-18" value="RP-2" style="rounded=0;whiteSpace=wrap;html=1;" parent="1" vertex="1">
          <mxGeometry x="140" y="455" width="50" height="20" as="geometry" />
        </mxCell>
        <mxCell id="fFxdtxSOvmqtfOTRgSrr-19" value="" style="endArrow=classic;html=1;rounded=0;exitX=-0.002;exitY=0.494;exitDx=0;exitDy=0;entryX=1.02;entryY=0.4;entryDx=0;entryDy=0;exitPerimeter=0;entryPerimeter=0;" parent="1" source="fFxdtxSOvmqtfOTRgSrr-5" target="fFxdtxSOvmqtfOTRgSrr-81" edge="1">
          <mxGeometry width="50" height="50" relative="1" as="geometry">
            <mxPoint x="230" y="435" as="sourcePoint" />
            <mxPoint x="190" y="435" as="targetPoint" />
          </mxGeometry>
        </mxCell>
        <mxCell id="fFxdtxSOvmqtfOTRgSrr-20" value="" style="endArrow=classic;html=1;rounded=0;exitX=-0.002;exitY=0.486;exitDx=0;exitDy=0;entryX=1;entryY=0.5;entryDx=0;entryDy=0;exitPerimeter=0;" parent="1" source="fFxdtxSOvmqtfOTRgSrr-5" target="fFxdtxSOvmqtfOTRgSrr-17" edge="1">
          <mxGeometry width="50" height="50" relative="1" as="geometry">
            <mxPoint x="230" y="435" as="sourcePoint" />
            <mxPoint x="190" y="415" as="targetPoint" />
          </mxGeometry>
        </mxCell>
        <mxCell id="fFxdtxSOvmqtfOTRgSrr-22" value="EC-3" style="rounded=0;whiteSpace=wrap;html=1;" parent="1" vertex="1">
          <mxGeometry x="140" y="379.5" width="50" height="20" as="geometry" />
        </mxCell>
        <mxCell id="fFxdtxSOvmqtfOTRgSrr-23" value="" style="endArrow=classic;html=1;rounded=0;entryX=1.023;entryY=0.524;entryDx=0;entryDy=0;exitX=-0.004;exitY=0.513;exitDx=0;exitDy=0;exitPerimeter=0;entryPerimeter=0;" parent="1" source="fFxdtxSOvmqtfOTRgSrr-3" target="fFxdtxSOvmqtfOTRgSrr-22" edge="1">
          <mxGeometry width="50" height="50" relative="1" as="geometry">
            <mxPoint x="220" y="380" as="sourcePoint" />
            <mxPoint x="200" y="340" as="targetPoint" />
          </mxGeometry>
        </mxCell>
        <mxCell id="fFxdtxSOvmqtfOTRgSrr-41" style="edgeStyle=orthogonalEdgeStyle;rounded=0;orthogonalLoop=1;jettySize=auto;html=1;entryX=0;entryY=0.5;entryDx=0;entryDy=0;exitX=0.512;exitY=-0.012;exitDx=0;exitDy=0;exitPerimeter=0;" parent="1" source="fFxdtxSOvmqtfOTRgSrr-32" target="IYlS7my690wejQT6I9Gt-67" edge="1">
          <mxGeometry relative="1" as="geometry">
            <Array as="points">
              <mxPoint x="570" y="756" />
              <mxPoint x="570" y="270" />
            </Array>
            <mxPoint x="320.99" y="752.99" as="sourcePoint" />
          </mxGeometry>
        </mxCell>
        <mxCell id="fFxdtxSOvmqtfOTRgSrr-37" style="edgeStyle=orthogonalEdgeStyle;rounded=0;orthogonalLoop=1;jettySize=auto;html=1;entryX=0;entryY=0.5;entryDx=0;entryDy=0;" parent="1" source="fFxdtxSOvmqtfOTRgSrr-33" target="IYlS7my690wejQT6I9Gt-67" edge="1">
          <mxGeometry relative="1" as="geometry">
            <mxPoint x="540" y="390" as="targetPoint" />
            <Array as="points">
              <mxPoint x="570" y="655" />
              <mxPoint x="570" y="270" />
            </Array>
          </mxGeometry>
        </mxCell>
        <mxCell id="fFxdtxSOvmqtfOTRgSrr-33" value="Perception of ICE Reliability&amp;nbsp;" style="ellipse;whiteSpace=wrap;html=1;aspect=fixed;" parent="1" vertex="1">
          <mxGeometry x="230" y="610" width="90" height="90" as="geometry" />
        </mxCell>
        <mxCell id="fFxdtxSOvmqtfOTRgSrr-34" value="Perception of ICE Costs" style="ellipse;whiteSpace=wrap;html=1;aspect=fixed;" parent="1" vertex="1">
          <mxGeometry x="230" y="515" width="90" height="90" as="geometry" />
        </mxCell>
        <mxCell id="fFxdtxSOvmqtfOTRgSrr-46" value="PIC-2" style="rounded=0;whiteSpace=wrap;html=1;" parent="1" vertex="1">
          <mxGeometry x="140" y="550" width="50" height="20" as="geometry" />
        </mxCell>
        <mxCell id="fFxdtxSOvmqtfOTRgSrr-47" value="PIC-1" style="rounded=0;whiteSpace=wrap;html=1;" parent="1" vertex="1">
          <mxGeometry x="140" y="530" width="50" height="20" as="geometry" />
        </mxCell>
        <mxCell id="fFxdtxSOvmqtfOTRgSrr-50" value="" style="endArrow=classic;html=1;rounded=0;exitX=0;exitY=0.5;exitDx=0;exitDy=0;" parent="1" source="fFxdtxSOvmqtfOTRgSrr-34" edge="1">
          <mxGeometry width="50" height="50" relative="1" as="geometry">
            <mxPoint x="250" y="455" as="sourcePoint" />
            <mxPoint x="190" y="560" as="targetPoint" />
            <Array as="points" />
          </mxGeometry>
        </mxCell>
        <mxCell id="fFxdtxSOvmqtfOTRgSrr-51" value="" style="endArrow=classic;html=1;rounded=0;exitX=0;exitY=0.5;exitDx=0;exitDy=0;entryX=1;entryY=0.45;entryDx=0;entryDy=0;entryPerimeter=0;" parent="1" source="fFxdtxSOvmqtfOTRgSrr-34" target="fFxdtxSOvmqtfOTRgSrr-47" edge="1">
          <mxGeometry width="50" height="50" relative="1" as="geometry">
            <mxPoint x="250" y="455" as="sourcePoint" />
            <mxPoint x="290" y="500" as="targetPoint" />
          </mxGeometry>
        </mxCell>
        <mxCell id="fFxdtxSOvmqtfOTRgSrr-61" value="PIC-3" style="rounded=0;whiteSpace=wrap;html=1;" parent="1" vertex="1">
          <mxGeometry x="140" y="570" width="50" height="20" as="geometry" />
        </mxCell>
        <mxCell id="fFxdtxSOvmqtfOTRgSrr-63" value="" style="endArrow=classic;html=1;rounded=0;entryX=1;entryY=0.5;entryDx=0;entryDy=0;exitX=0;exitY=0.511;exitDx=0;exitDy=0;exitPerimeter=0;" parent="1" source="fFxdtxSOvmqtfOTRgSrr-34" target="fFxdtxSOvmqtfOTRgSrr-61" edge="1">
          <mxGeometry width="50" height="50" relative="1" as="geometry">
            <mxPoint x="230" y="520" as="sourcePoint" />
            <mxPoint x="385" y="620" as="targetPoint" />
          </mxGeometry>
        </mxCell>
        <mxCell id="fFxdtxSOvmqtfOTRgSrr-64" value="PIR-2" style="rounded=0;whiteSpace=wrap;html=1;" parent="1" vertex="1">
          <mxGeometry x="140" y="655" width="50" height="20" as="geometry" />
        </mxCell>
        <mxCell id="fFxdtxSOvmqtfOTRgSrr-65" value="PIR-1" style="rounded=0;whiteSpace=wrap;html=1;" parent="1" vertex="1">
          <mxGeometry x="140" y="635" width="50" height="20" as="geometry" />
        </mxCell>
        <mxCell id="fFxdtxSOvmqtfOTRgSrr-69" value="" style="endArrow=classic;html=1;rounded=0;exitX=-0.01;exitY=0.503;exitDx=0;exitDy=0;exitPerimeter=0;entryX=1.018;entryY=0.488;entryDx=0;entryDy=0;entryPerimeter=0;" parent="1" source="fFxdtxSOvmqtfOTRgSrr-33" target="fFxdtxSOvmqtfOTRgSrr-65" edge="1">
          <mxGeometry width="50" height="50" relative="1" as="geometry">
            <mxPoint x="420" y="580" as="sourcePoint" />
            <mxPoint x="190" y="635" as="targetPoint" />
          </mxGeometry>
        </mxCell>
        <mxCell id="fFxdtxSOvmqtfOTRgSrr-72" value="PAM-2" style="rounded=0;whiteSpace=wrap;html=1;" parent="1" vertex="1">
          <mxGeometry x="140" y="755" width="50" height="20" as="geometry" />
        </mxCell>
        <mxCell id="fFxdtxSOvmqtfOTRgSrr-77" value="" style="endArrow=classic;html=1;rounded=0;exitX=0.556;exitY=1.011;exitDx=0;exitDy=0;entryX=1.012;entryY=0.529;entryDx=0;entryDy=0;entryPerimeter=0;exitPerimeter=0;" parent="1" target="fFxdtxSOvmqtfOTRgSrr-73" edge="1">
          <mxGeometry width="50" height="50" relative="1" as="geometry">
            <mxPoint x="229.01" y="757.04" as="sourcePoint" />
            <mxPoint x="720" y="488" as="targetPoint" />
          </mxGeometry>
        </mxCell>
        <mxCell id="fFxdtxSOvmqtfOTRgSrr-81" value="RP-3" style="rounded=0;whiteSpace=wrap;html=1;" parent="1" vertex="1">
          <mxGeometry x="140" y="475" width="50" height="20" as="geometry" />
        </mxCell>
        <mxCell id="3aYb_1MQCvMzoAkba6OH-2" value="" style="endArrow=classic;html=1;rounded=0;exitX=0.524;exitY=1.014;exitDx=0;exitDy=0;exitPerimeter=0;" parent="1" source="fFxdtxSOvmqtfOTRgSrr-32" edge="1">
          <mxGeometry width="50" height="50" relative="1" as="geometry">
            <mxPoint x="229" y="760" as="sourcePoint" />
            <mxPoint x="190" y="765" as="targetPoint" />
          </mxGeometry>
        </mxCell>
        <mxCell id="fFxdtxSOvmqtfOTRgSrr-73" value="PAM-1" style="rounded=0;whiteSpace=wrap;html=1;" parent="1" vertex="1">
          <mxGeometry x="140" y="735" width="50" height="20" as="geometry" />
        </mxCell>
        <mxCell id="3aYb_1MQCvMzoAkba6OH-7" value="" style="edgeStyle=orthogonalEdgeStyle;rounded=0;orthogonalLoop=1;jettySize=auto;html=1;" parent="1" source="fFxdtxSOvmqtfOTRgSrr-34" edge="1">
          <mxGeometry relative="1" as="geometry">
            <mxPoint x="620" y="270" as="targetPoint" />
            <Array as="points">
              <mxPoint x="570" y="560" />
              <mxPoint x="570" y="270" />
            </Array>
            <mxPoint x="320" y="550" as="sourcePoint" />
          </mxGeometry>
        </mxCell>
        <mxCell id="fFxdtxSOvmqtfOTRgSrr-32" value="Perception of Automobile Market &lt;br&gt;Trends" style="ellipse;whiteSpace=wrap;html=1;aspect=fixed;direction=south;" parent="1" vertex="1">
          <mxGeometry x="230" y="710" width="90" height="90" as="geometry" />
        </mxCell>
        <mxCell id="w3oAXhgkn2lfSxqzr1Ep-8" value="" style="endArrow=classic;html=1;rounded=0;exitX=-0.002;exitY=0.512;exitDx=0;exitDy=0;exitPerimeter=0;entryX=1.004;entryY=0.506;entryDx=0;entryDy=0;entryPerimeter=0;" parent="1" source="fFxdtxSOvmqtfOTRgSrr-33" target="fFxdtxSOvmqtfOTRgSrr-64" edge="1">
          <mxGeometry width="50" height="50" relative="1" as="geometry">
            <mxPoint x="170" y="727" as="sourcePoint" />
            <mxPoint x="130" y="700" as="targetPoint" />
          </mxGeometry>
        </mxCell>
        <mxCell id="lYgVV2aJ9P3OAKaIj1eV-3" value="" style="endArrow=classic;html=1;rounded=0;exitX=-0.004;exitY=0.488;exitDx=0;exitDy=0;exitPerimeter=0;" parent="1" source="fFxdtxSOvmqtfOTRgSrr-5" edge="1">
          <mxGeometry width="50" height="50" relative="1" as="geometry">
            <mxPoint x="240" y="570" as="sourcePoint" />
            <mxPoint x="190" y="464" as="targetPoint" />
            <Array as="points" />
          </mxGeometry>
        </mxCell>
        <mxCell id="lYgVV2aJ9P3OAKaIj1eV-4" value="" style="endArrow=classic;html=1;rounded=0;entryX=1;entryY=0.55;entryDx=0;entryDy=0;entryPerimeter=0;exitX=0.002;exitY=0.511;exitDx=0;exitDy=0;exitPerimeter=0;" parent="1" source="fFxdtxSOvmqtfOTRgSrr-3" target="fFxdtxSOvmqtfOTRgSrr-9" edge="1">
          <mxGeometry width="50" height="50" relative="1" as="geometry">
            <mxPoint x="240" y="379" as="sourcePoint" />
            <mxPoint x="200" y="404" as="targetPoint" />
          </mxGeometry>
        </mxCell>
      </root>
    </mxGraphModel>
  </diagram>
  <diagram name="Copy of Page-1" id="V0JVwcdUn-1ukwIHhBut">
    <mxGraphModel dx="1366" dy="766" grid="1" gridSize="10" guides="1" tooltips="1" connect="0" arrows="1" fold="1" page="1" pageScale="1" pageWidth="1169" pageHeight="827" math="0" shadow="0">
      <root>
        <mxCell id="9ZlYClMZQ8yBe7wbKxgT-0" />
        <mxCell id="9ZlYClMZQ8yBe7wbKxgT-1" parent="9ZlYClMZQ8yBe7wbKxgT-0" />
        <mxCell id="9ZlYClMZQ8yBe7wbKxgT-8" style="edgeStyle=orthogonalEdgeStyle;rounded=0;orthogonalLoop=1;jettySize=auto;html=1;entryX=0;entryY=0.5;entryDx=0;entryDy=0;" parent="9ZlYClMZQ8yBe7wbKxgT-1" source="9ZlYClMZQ8yBe7wbKxgT-9" target="9ZlYClMZQ8yBe7wbKxgT-17" edge="1">
          <mxGeometry relative="1" as="geometry">
            <Array as="points">
              <mxPoint x="570" y="165" />
              <mxPoint x="570" y="270" />
            </Array>
          </mxGeometry>
        </mxCell>
        <mxCell id="9ZlYClMZQ8yBe7wbKxgT-9" value="Perceived Utility&amp;nbsp;" style="ellipse;whiteSpace=wrap;html=1;aspect=fixed;" parent="9ZlYClMZQ8yBe7wbKxgT-1" vertex="1">
          <mxGeometry x="420" y="125" width="90" height="90" as="geometry" />
        </mxCell>
        <mxCell id="9ZlYClMZQ8yBe7wbKxgT-10" style="edgeStyle=orthogonalEdgeStyle;rounded=0;orthogonalLoop=1;jettySize=auto;html=1;entryX=0;entryY=0.5;entryDx=0;entryDy=0;" parent="9ZlYClMZQ8yBe7wbKxgT-1" source="9ZlYClMZQ8yBe7wbKxgT-11" target="9ZlYClMZQ8yBe7wbKxgT-17" edge="1">
          <mxGeometry relative="1" as="geometry">
            <mxPoint x="570" y="260" as="targetPoint" />
            <Array as="points">
              <mxPoint x="570" y="360" />
              <mxPoint x="570" y="270" />
            </Array>
          </mxGeometry>
        </mxCell>
        <mxCell id="9ZlYClMZQ8yBe7wbKxgT-11" value="Personal &lt;br&gt;Norms" style="ellipse;whiteSpace=wrap;html=1;aspect=fixed;" parent="9ZlYClMZQ8yBe7wbKxgT-1" vertex="1">
          <mxGeometry x="420" y="324" width="90" height="90" as="geometry" />
        </mxCell>
        <mxCell id="9ZlYClMZQ8yBe7wbKxgT-12" value="" style="edgeStyle=orthogonalEdgeStyle;rounded=0;orthogonalLoop=1;jettySize=auto;html=1;" parent="9ZlYClMZQ8yBe7wbKxgT-1" source="9ZlYClMZQ8yBe7wbKxgT-14" target="9ZlYClMZQ8yBe7wbKxgT-9" edge="1">
          <mxGeometry relative="1" as="geometry" />
        </mxCell>
        <mxCell id="9ZlYClMZQ8yBe7wbKxgT-13" style="edgeStyle=orthogonalEdgeStyle;rounded=0;orthogonalLoop=1;jettySize=auto;html=1;exitX=0.5;exitY=0;exitDx=0;exitDy=0;" parent="9ZlYClMZQ8yBe7wbKxgT-1" source="9ZlYClMZQ8yBe7wbKxgT-14" target="9ZlYClMZQ8yBe7wbKxgT-17" edge="1">
          <mxGeometry relative="1" as="geometry" />
        </mxCell>
        <mxCell id="9ZlYClMZQ8yBe7wbKxgT-14" value="Perception of Costs" style="ellipse;whiteSpace=wrap;html=1;aspect=fixed;" parent="9ZlYClMZQ8yBe7wbKxgT-1" vertex="1">
          <mxGeometry x="230" y="125" width="90" height="90" as="geometry" />
        </mxCell>
        <mxCell id="9ZlYClMZQ8yBe7wbKxgT-15" value="PBC-1" style="rounded=0;whiteSpace=wrap;html=1;" parent="9ZlYClMZQ8yBe7wbKxgT-1" vertex="1">
          <mxGeometry x="140" y="250" width="50" height="20" as="geometry" />
        </mxCell>
        <mxCell id="9ZlYClMZQ8yBe7wbKxgT-16" value="PBC-2" style="rounded=0;whiteSpace=wrap;html=1;" parent="9ZlYClMZQ8yBe7wbKxgT-1" vertex="1">
          <mxGeometry x="140" y="270" width="50" height="20" as="geometry" />
        </mxCell>
        <mxCell id="9ZlYClMZQ8yBe7wbKxgT-17" value="EV Adoption Intention" style="ellipse;whiteSpace=wrap;html=1;aspect=fixed;strokeWidth=3;" parent="9ZlYClMZQ8yBe7wbKxgT-1" vertex="1">
          <mxGeometry x="620" y="230" width="80" height="80" as="geometry" />
        </mxCell>
        <mxCell id="9ZlYClMZQ8yBe7wbKxgT-18" style="edgeStyle=orthogonalEdgeStyle;rounded=0;orthogonalLoop=1;jettySize=auto;html=1;" parent="9ZlYClMZQ8yBe7wbKxgT-1" source="9ZlYClMZQ8yBe7wbKxgT-20" target="9ZlYClMZQ8yBe7wbKxgT-9" edge="1">
          <mxGeometry relative="1" as="geometry" />
        </mxCell>
        <mxCell id="9ZlYClMZQ8yBe7wbKxgT-19" style="edgeStyle=orthogonalEdgeStyle;rounded=0;orthogonalLoop=1;jettySize=auto;html=1;" parent="9ZlYClMZQ8yBe7wbKxgT-1" source="9ZlYClMZQ8yBe7wbKxgT-20" target="9ZlYClMZQ8yBe7wbKxgT-17" edge="1">
          <mxGeometry relative="1" as="geometry">
            <mxPoint x="330" y="240" as="sourcePoint" />
          </mxGeometry>
        </mxCell>
        <mxCell id="9ZlYClMZQ8yBe7wbKxgT-20" value="Perceived Behavioral Control" style="ellipse;whiteSpace=wrap;html=1;aspect=fixed;" parent="9ZlYClMZQ8yBe7wbKxgT-1" vertex="1">
          <mxGeometry x="230" y="225" width="90" height="90" as="geometry" />
        </mxCell>
        <mxCell id="9ZlYClMZQ8yBe7wbKxgT-21" value="POC-1" style="rounded=0;whiteSpace=wrap;html=1;" parent="9ZlYClMZQ8yBe7wbKxgT-1" vertex="1">
          <mxGeometry x="140" y="140" width="50" height="20" as="geometry" />
        </mxCell>
        <mxCell id="9ZlYClMZQ8yBe7wbKxgT-22" value="POC-2" style="rounded=0;whiteSpace=wrap;html=1;" parent="9ZlYClMZQ8yBe7wbKxgT-1" vertex="1">
          <mxGeometry x="140" y="160" width="50" height="20" as="geometry" />
        </mxCell>
        <mxCell id="9ZlYClMZQ8yBe7wbKxgT-23" value="POC-3" style="rounded=0;whiteSpace=wrap;html=1;" parent="9ZlYClMZQ8yBe7wbKxgT-1" vertex="1">
          <mxGeometry x="140" y="180" width="50" height="20" as="geometry" />
        </mxCell>
        <mxCell id="9ZlYClMZQ8yBe7wbKxgT-24" value="" style="endArrow=classic;html=1;rounded=0;exitX=0;exitY=0.5;exitDx=0;exitDy=0;entryX=1;entryY=0.5;entryDx=0;entryDy=0;" parent="9ZlYClMZQ8yBe7wbKxgT-1" source="9ZlYClMZQ8yBe7wbKxgT-14" target="9ZlYClMZQ8yBe7wbKxgT-21" edge="1">
          <mxGeometry width="50" height="50" relative="1" as="geometry">
            <mxPoint x="580" y="255" as="sourcePoint" />
            <mxPoint x="630" y="205" as="targetPoint" />
          </mxGeometry>
        </mxCell>
        <mxCell id="9ZlYClMZQ8yBe7wbKxgT-25" value="" style="endArrow=classic;html=1;rounded=0;entryX=1;entryY=0.5;entryDx=0;entryDy=0;exitX=0;exitY=0.5;exitDx=0;exitDy=0;" parent="9ZlYClMZQ8yBe7wbKxgT-1" source="9ZlYClMZQ8yBe7wbKxgT-14" target="9ZlYClMZQ8yBe7wbKxgT-23" edge="1">
          <mxGeometry width="50" height="50" relative="1" as="geometry">
            <mxPoint x="210" y="125" as="sourcePoint" />
            <mxPoint x="170" y="95" as="targetPoint" />
          </mxGeometry>
        </mxCell>
        <mxCell id="9ZlYClMZQ8yBe7wbKxgT-26" value="" style="endArrow=classic;html=1;rounded=0;exitX=0;exitY=0.5;exitDx=0;exitDy=0;entryX=1;entryY=0.5;entryDx=0;entryDy=0;" parent="9ZlYClMZQ8yBe7wbKxgT-1" source="9ZlYClMZQ8yBe7wbKxgT-20" target="9ZlYClMZQ8yBe7wbKxgT-16" edge="1">
          <mxGeometry width="50" height="50" relative="1" as="geometry">
            <mxPoint x="200" y="210" as="sourcePoint" />
            <mxPoint x="190" y="220" as="targetPoint" />
          </mxGeometry>
        </mxCell>
        <mxCell id="9ZlYClMZQ8yBe7wbKxgT-27" value="" style="endArrow=classic;html=1;rounded=0;entryX=1;entryY=0.5;entryDx=0;entryDy=0;" parent="9ZlYClMZQ8yBe7wbKxgT-1" target="9ZlYClMZQ8yBe7wbKxgT-22" edge="1">
          <mxGeometry width="50" height="50" relative="1" as="geometry">
            <mxPoint x="230" y="170" as="sourcePoint" />
            <mxPoint x="200" y="110" as="targetPoint" />
          </mxGeometry>
        </mxCell>
        <mxCell id="9ZlYClMZQ8yBe7wbKxgT-30" value="" style="endArrow=classic;html=1;rounded=0;exitX=0;exitY=0.5;exitDx=0;exitDy=0;entryX=1;entryY=0.5;entryDx=0;entryDy=0;" parent="9ZlYClMZQ8yBe7wbKxgT-1" source="9ZlYClMZQ8yBe7wbKxgT-20" target="9ZlYClMZQ8yBe7wbKxgT-15" edge="1">
          <mxGeometry width="50" height="50" relative="1" as="geometry">
            <mxPoint x="240" y="230" as="sourcePoint" />
            <mxPoint x="190" y="200" as="targetPoint" />
          </mxGeometry>
        </mxCell>
        <mxCell id="9ZlYClMZQ8yBe7wbKxgT-31" style="edgeStyle=orthogonalEdgeStyle;rounded=0;orthogonalLoop=1;jettySize=auto;html=1;entryX=0;entryY=0.5;entryDx=0;entryDy=0;" parent="9ZlYClMZQ8yBe7wbKxgT-1" source="9ZlYClMZQ8yBe7wbKxgT-32" target="9ZlYClMZQ8yBe7wbKxgT-11" edge="1">
          <mxGeometry relative="1" as="geometry" />
        </mxCell>
        <mxCell id="9ZlYClMZQ8yBe7wbKxgT-32" value="Environmental Considerations" style="ellipse;whiteSpace=wrap;html=1;aspect=fixed;" parent="9ZlYClMZQ8yBe7wbKxgT-1" vertex="1">
          <mxGeometry x="230" y="324" width="90" height="90" as="geometry" />
        </mxCell>
        <mxCell id="9ZlYClMZQ8yBe7wbKxgT-33" style="edgeStyle=orthogonalEdgeStyle;rounded=0;orthogonalLoop=1;jettySize=auto;html=1;entryX=0.511;entryY=0.989;entryDx=0;entryDy=0;entryPerimeter=0;" parent="9ZlYClMZQ8yBe7wbKxgT-1" source="9ZlYClMZQ8yBe7wbKxgT-34" target="9ZlYClMZQ8yBe7wbKxgT-11" edge="1">
          <mxGeometry relative="1" as="geometry" />
        </mxCell>
        <mxCell id="9ZlYClMZQ8yBe7wbKxgT-34" value="Risk Perceptions&amp;nbsp;" style="ellipse;whiteSpace=wrap;html=1;aspect=fixed;" parent="9ZlYClMZQ8yBe7wbKxgT-1" vertex="1">
          <mxGeometry x="230" y="420" width="90" height="90" as="geometry" />
        </mxCell>
        <mxCell id="9ZlYClMZQ8yBe7wbKxgT-35" value="EC-1" style="rounded=0;whiteSpace=wrap;html=1;" parent="9ZlYClMZQ8yBe7wbKxgT-1" vertex="1">
          <mxGeometry x="140" y="338.5" width="50" height="21" as="geometry" />
        </mxCell>
        <mxCell id="9ZlYClMZQ8yBe7wbKxgT-36" value="EC-2" style="rounded=0;whiteSpace=wrap;html=1;" parent="9ZlYClMZQ8yBe7wbKxgT-1" vertex="1">
          <mxGeometry x="140" y="359.5" width="50" height="20" as="geometry" />
        </mxCell>
        <mxCell id="9ZlYClMZQ8yBe7wbKxgT-37" value="" style="endArrow=classic;html=1;rounded=0;entryX=1;entryY=0.5;entryDx=0;entryDy=0;exitX=0.002;exitY=0.509;exitDx=0;exitDy=0;exitPerimeter=0;" parent="9ZlYClMZQ8yBe7wbKxgT-1" source="9ZlYClMZQ8yBe7wbKxgT-32" target="9ZlYClMZQ8yBe7wbKxgT-36" edge="1">
          <mxGeometry width="50" height="50" relative="1" as="geometry">
            <mxPoint x="230" y="369" as="sourcePoint" />
            <mxPoint x="190" y="320" as="targetPoint" />
            <Array as="points" />
          </mxGeometry>
        </mxCell>
        <mxCell id="9ZlYClMZQ8yBe7wbKxgT-38" value="RP-1" style="rounded=0;whiteSpace=wrap;html=1;" parent="9ZlYClMZQ8yBe7wbKxgT-1" vertex="1">
          <mxGeometry x="140" y="435" width="50" height="20" as="geometry" />
        </mxCell>
        <mxCell id="9ZlYClMZQ8yBe7wbKxgT-39" value="RP-2" style="rounded=0;whiteSpace=wrap;html=1;" parent="9ZlYClMZQ8yBe7wbKxgT-1" vertex="1">
          <mxGeometry x="140" y="455" width="50" height="20" as="geometry" />
        </mxCell>
        <mxCell id="9ZlYClMZQ8yBe7wbKxgT-40" value="" style="endArrow=classic;html=1;rounded=0;exitX=-0.002;exitY=0.494;exitDx=0;exitDy=0;entryX=1.02;entryY=0.4;entryDx=0;entryDy=0;exitPerimeter=0;entryPerimeter=0;" parent="9ZlYClMZQ8yBe7wbKxgT-1" source="9ZlYClMZQ8yBe7wbKxgT-34" target="9ZlYClMZQ8yBe7wbKxgT-60" edge="1">
          <mxGeometry width="50" height="50" relative="1" as="geometry">
            <mxPoint x="230" y="435" as="sourcePoint" />
            <mxPoint x="190" y="435" as="targetPoint" />
          </mxGeometry>
        </mxCell>
        <mxCell id="9ZlYClMZQ8yBe7wbKxgT-41" value="" style="endArrow=classic;html=1;rounded=0;exitX=-0.002;exitY=0.486;exitDx=0;exitDy=0;entryX=1;entryY=0.5;entryDx=0;entryDy=0;exitPerimeter=0;" parent="9ZlYClMZQ8yBe7wbKxgT-1" source="9ZlYClMZQ8yBe7wbKxgT-34" target="9ZlYClMZQ8yBe7wbKxgT-38" edge="1">
          <mxGeometry width="50" height="50" relative="1" as="geometry">
            <mxPoint x="230" y="435" as="sourcePoint" />
            <mxPoint x="190" y="415" as="targetPoint" />
          </mxGeometry>
        </mxCell>
        <mxCell id="9ZlYClMZQ8yBe7wbKxgT-42" value="EC-3" style="rounded=0;whiteSpace=wrap;html=1;" parent="9ZlYClMZQ8yBe7wbKxgT-1" vertex="1">
          <mxGeometry x="140" y="379.5" width="50" height="20" as="geometry" />
        </mxCell>
        <mxCell id="9ZlYClMZQ8yBe7wbKxgT-43" value="" style="endArrow=classic;html=1;rounded=0;entryX=1.023;entryY=0.524;entryDx=0;entryDy=0;exitX=-0.004;exitY=0.513;exitDx=0;exitDy=0;exitPerimeter=0;entryPerimeter=0;" parent="9ZlYClMZQ8yBe7wbKxgT-1" source="9ZlYClMZQ8yBe7wbKxgT-32" target="9ZlYClMZQ8yBe7wbKxgT-42" edge="1">
          <mxGeometry width="50" height="50" relative="1" as="geometry">
            <mxPoint x="220" y="380" as="sourcePoint" />
            <mxPoint x="200" y="340" as="targetPoint" />
          </mxGeometry>
        </mxCell>
        <mxCell id="9ZlYClMZQ8yBe7wbKxgT-44" style="edgeStyle=orthogonalEdgeStyle;rounded=0;orthogonalLoop=1;jettySize=auto;html=1;entryX=0;entryY=0.5;entryDx=0;entryDy=0;exitX=0.512;exitY=-0.012;exitDx=0;exitDy=0;exitPerimeter=0;" parent="9ZlYClMZQ8yBe7wbKxgT-1" source="9ZlYClMZQ8yBe7wbKxgT-90" target="9ZlYClMZQ8yBe7wbKxgT-17" edge="1">
          <mxGeometry relative="1" as="geometry">
            <Array as="points">
              <mxPoint x="570" y="756" />
              <mxPoint x="570" y="270" />
            </Array>
            <mxPoint x="320.99" y="752.99" as="sourcePoint" />
          </mxGeometry>
        </mxCell>
        <mxCell id="9ZlYClMZQ8yBe7wbKxgT-45" style="edgeStyle=orthogonalEdgeStyle;rounded=0;orthogonalLoop=1;jettySize=auto;html=1;entryX=0;entryY=0.5;entryDx=0;entryDy=0;" parent="9ZlYClMZQ8yBe7wbKxgT-1" source="9ZlYClMZQ8yBe7wbKxgT-46" target="9ZlYClMZQ8yBe7wbKxgT-17" edge="1">
          <mxGeometry relative="1" as="geometry">
            <mxPoint x="540" y="390" as="targetPoint" />
            <Array as="points">
              <mxPoint x="570" y="655" />
              <mxPoint x="570" y="270" />
            </Array>
          </mxGeometry>
        </mxCell>
        <mxCell id="9ZlYClMZQ8yBe7wbKxgT-46" value="Perception of ICE Reliability&amp;nbsp;" style="ellipse;whiteSpace=wrap;html=1;aspect=fixed;" parent="9ZlYClMZQ8yBe7wbKxgT-1" vertex="1">
          <mxGeometry x="230" y="610" width="90" height="90" as="geometry" />
        </mxCell>
        <mxCell id="9ZlYClMZQ8yBe7wbKxgT-47" value="Perception of ICE Costs" style="ellipse;whiteSpace=wrap;html=1;aspect=fixed;" parent="9ZlYClMZQ8yBe7wbKxgT-1" vertex="1">
          <mxGeometry x="230" y="515" width="90" height="90" as="geometry" />
        </mxCell>
        <mxCell id="9ZlYClMZQ8yBe7wbKxgT-48" value="PIC-2" style="rounded=0;whiteSpace=wrap;html=1;" parent="9ZlYClMZQ8yBe7wbKxgT-1" vertex="1">
          <mxGeometry x="140" y="550" width="50" height="20" as="geometry" />
        </mxCell>
        <mxCell id="9ZlYClMZQ8yBe7wbKxgT-49" value="PIC-1" style="rounded=0;whiteSpace=wrap;html=1;" parent="9ZlYClMZQ8yBe7wbKxgT-1" vertex="1">
          <mxGeometry x="140" y="530" width="50" height="20" as="geometry" />
        </mxCell>
        <mxCell id="9ZlYClMZQ8yBe7wbKxgT-50" value="" style="endArrow=classic;html=1;rounded=0;exitX=0;exitY=0.5;exitDx=0;exitDy=0;" parent="9ZlYClMZQ8yBe7wbKxgT-1" source="9ZlYClMZQ8yBe7wbKxgT-47" edge="1">
          <mxGeometry width="50" height="50" relative="1" as="geometry">
            <mxPoint x="250" y="455" as="sourcePoint" />
            <mxPoint x="190" y="560" as="targetPoint" />
            <Array as="points" />
          </mxGeometry>
        </mxCell>
        <mxCell id="9ZlYClMZQ8yBe7wbKxgT-51" value="" style="endArrow=classic;html=1;rounded=0;exitX=0;exitY=0.5;exitDx=0;exitDy=0;entryX=1;entryY=0.45;entryDx=0;entryDy=0;entryPerimeter=0;" parent="9ZlYClMZQ8yBe7wbKxgT-1" source="9ZlYClMZQ8yBe7wbKxgT-47" target="9ZlYClMZQ8yBe7wbKxgT-49" edge="1">
          <mxGeometry width="50" height="50" relative="1" as="geometry">
            <mxPoint x="250" y="455" as="sourcePoint" />
            <mxPoint x="290" y="500" as="targetPoint" />
          </mxGeometry>
        </mxCell>
        <mxCell id="9ZlYClMZQ8yBe7wbKxgT-52" value="PIC-3" style="rounded=0;whiteSpace=wrap;html=1;" parent="9ZlYClMZQ8yBe7wbKxgT-1" vertex="1">
          <mxGeometry x="140" y="570" width="50" height="20" as="geometry" />
        </mxCell>
        <mxCell id="9ZlYClMZQ8yBe7wbKxgT-53" value="" style="endArrow=classic;html=1;rounded=0;entryX=1;entryY=0.5;entryDx=0;entryDy=0;exitX=0;exitY=0.511;exitDx=0;exitDy=0;exitPerimeter=0;" parent="9ZlYClMZQ8yBe7wbKxgT-1" source="9ZlYClMZQ8yBe7wbKxgT-47" target="9ZlYClMZQ8yBe7wbKxgT-52" edge="1">
          <mxGeometry width="50" height="50" relative="1" as="geometry">
            <mxPoint x="230" y="520" as="sourcePoint" />
            <mxPoint x="385" y="620" as="targetPoint" />
          </mxGeometry>
        </mxCell>
        <mxCell id="9ZlYClMZQ8yBe7wbKxgT-58" value="PAM-2" style="rounded=0;whiteSpace=wrap;html=1;" parent="9ZlYClMZQ8yBe7wbKxgT-1" vertex="1">
          <mxGeometry x="140" y="755" width="50" height="20" as="geometry" />
        </mxCell>
        <mxCell id="9ZlYClMZQ8yBe7wbKxgT-59" value="" style="endArrow=classic;html=1;rounded=0;exitX=0.556;exitY=1.011;exitDx=0;exitDy=0;entryX=1.012;entryY=0.529;entryDx=0;entryDy=0;entryPerimeter=0;exitPerimeter=0;" parent="9ZlYClMZQ8yBe7wbKxgT-1" target="9ZlYClMZQ8yBe7wbKxgT-83" edge="1">
          <mxGeometry width="50" height="50" relative="1" as="geometry">
            <mxPoint x="229.01" y="757.04" as="sourcePoint" />
            <mxPoint x="720" y="488" as="targetPoint" />
          </mxGeometry>
        </mxCell>
        <mxCell id="9ZlYClMZQ8yBe7wbKxgT-60" value="RP-3" style="rounded=0;whiteSpace=wrap;html=1;" parent="9ZlYClMZQ8yBe7wbKxgT-1" vertex="1">
          <mxGeometry x="140" y="475" width="50" height="20" as="geometry" />
        </mxCell>
        <mxCell id="9ZlYClMZQ8yBe7wbKxgT-82" value="" style="endArrow=classic;html=1;rounded=0;exitX=0.524;exitY=1.014;exitDx=0;exitDy=0;exitPerimeter=0;" parent="9ZlYClMZQ8yBe7wbKxgT-1" source="9ZlYClMZQ8yBe7wbKxgT-90" edge="1">
          <mxGeometry width="50" height="50" relative="1" as="geometry">
            <mxPoint x="229" y="760" as="sourcePoint" />
            <mxPoint x="190" y="765" as="targetPoint" />
          </mxGeometry>
        </mxCell>
        <mxCell id="9ZlYClMZQ8yBe7wbKxgT-83" value="PAM-1" style="rounded=0;whiteSpace=wrap;html=1;" parent="9ZlYClMZQ8yBe7wbKxgT-1" vertex="1">
          <mxGeometry x="140" y="735" width="50" height="20" as="geometry" />
        </mxCell>
        <mxCell id="9ZlYClMZQ8yBe7wbKxgT-84" value="" style="edgeStyle=orthogonalEdgeStyle;rounded=0;orthogonalLoop=1;jettySize=auto;html=1;" parent="9ZlYClMZQ8yBe7wbKxgT-1" source="9ZlYClMZQ8yBe7wbKxgT-47" edge="1">
          <mxGeometry relative="1" as="geometry">
            <mxPoint x="620" y="270" as="targetPoint" />
            <Array as="points">
              <mxPoint x="570" y="560" />
              <mxPoint x="570" y="270" />
            </Array>
            <mxPoint x="320" y="550" as="sourcePoint" />
          </mxGeometry>
        </mxCell>
        <mxCell id="9ZlYClMZQ8yBe7wbKxgT-90" value="Perception of Automobile Market &lt;br&gt;Trends" style="ellipse;whiteSpace=wrap;html=1;aspect=fixed;direction=south;" parent="9ZlYClMZQ8yBe7wbKxgT-1" vertex="1">
          <mxGeometry x="230" y="710" width="90" height="90" as="geometry" />
        </mxCell>
        <mxCell id="9ZlYClMZQ8yBe7wbKxgT-93" value="" style="endArrow=classic;html=1;rounded=0;exitX=-0.004;exitY=0.488;exitDx=0;exitDy=0;exitPerimeter=0;" parent="9ZlYClMZQ8yBe7wbKxgT-1" source="9ZlYClMZQ8yBe7wbKxgT-34" edge="1">
          <mxGeometry width="50" height="50" relative="1" as="geometry">
            <mxPoint x="240" y="570" as="sourcePoint" />
            <mxPoint x="190" y="464" as="targetPoint" />
            <Array as="points" />
          </mxGeometry>
        </mxCell>
        <mxCell id="9ZlYClMZQ8yBe7wbKxgT-94" value="" style="endArrow=classic;html=1;rounded=0;entryX=1;entryY=0.55;entryDx=0;entryDy=0;entryPerimeter=0;exitX=0.002;exitY=0.511;exitDx=0;exitDy=0;exitPerimeter=0;" parent="9ZlYClMZQ8yBe7wbKxgT-1" source="9ZlYClMZQ8yBe7wbKxgT-32" target="9ZlYClMZQ8yBe7wbKxgT-35" edge="1">
          <mxGeometry width="50" height="50" relative="1" as="geometry">
            <mxPoint x="240" y="379" as="sourcePoint" />
            <mxPoint x="200" y="404" as="targetPoint" />
          </mxGeometry>
        </mxCell>
        <mxCell id="t6mNhy_cSAT_ZuEOXdew-0" value="" style="ellipse;whiteSpace=wrap;html=1;dashed=1;dashPattern=8 8;fillColor=none;" parent="9ZlYClMZQ8yBe7wbKxgT-1" vertex="1">
          <mxGeometry x="880" y="202.5" width="150" height="277.5" as="geometry" />
        </mxCell>
        <mxCell id="t6mNhy_cSAT_ZuEOXdew-1" value="" style="whiteSpace=wrap;html=1;fillColor=none;dashed=1;dashPattern=8 8;" parent="9ZlYClMZQ8yBe7wbKxgT-1" vertex="1">
          <mxGeometry x="840" y="180" width="240" height="410" as="geometry" />
        </mxCell>
        <mxCell id="t6mNhy_cSAT_ZuEOXdew-2" value="" style="edgeStyle=orthogonalEdgeStyle;rounded=0;orthogonalLoop=1;jettySize=auto;html=1;" parent="9ZlYClMZQ8yBe7wbKxgT-1" target="t6mNhy_cSAT_ZuEOXdew-4" edge="1">
          <mxGeometry relative="1" as="geometry">
            <mxPoint x="700" y="270" as="sourcePoint" />
            <Array as="points">
              <mxPoint x="720" y="270" />
              <mxPoint x="720" y="270" />
            </Array>
          </mxGeometry>
        </mxCell>
        <mxCell id="t6mNhy_cSAT_ZuEOXdew-3" value="" style="edgeStyle=orthogonalEdgeStyle;rounded=0;orthogonalLoop=1;jettySize=auto;html=1;" parent="9ZlYClMZQ8yBe7wbKxgT-1" source="t6mNhy_cSAT_ZuEOXdew-4" target="t6mNhy_cSAT_ZuEOXdew-7" edge="1">
          <mxGeometry relative="1" as="geometry" />
        </mxCell>
        <mxCell id="t6mNhy_cSAT_ZuEOXdew-4" value="EV Adoption Behavior" style="ellipse;whiteSpace=wrap;html=1;aspect=fixed;" parent="9ZlYClMZQ8yBe7wbKxgT-1" vertex="1">
          <mxGeometry x="750" y="230" width="80" height="80" as="geometry" />
        </mxCell>
        <mxCell id="t6mNhy_cSAT_ZuEOXdew-5" value="&lt;b&gt;&lt;i&gt;Future Work&lt;/i&gt;&lt;/b&gt;" style="text;strokeColor=none;align=center;fillColor=none;html=1;verticalAlign=middle;whiteSpace=wrap;rounded=0;" parent="9ZlYClMZQ8yBe7wbKxgT-1" vertex="1">
          <mxGeometry x="810" y="180" width="150" height="30" as="geometry" />
        </mxCell>
        <mxCell id="t6mNhy_cSAT_ZuEOXdew-6" value="" style="edgeStyle=orthogonalEdgeStyle;rounded=0;orthogonalLoop=1;jettySize=auto;html=1;" parent="9ZlYClMZQ8yBe7wbKxgT-1" source="t6mNhy_cSAT_ZuEOXdew-7" target="t6mNhy_cSAT_ZuEOXdew-9" edge="1">
          <mxGeometry relative="1" as="geometry" />
        </mxCell>
        <mxCell id="t6mNhy_cSAT_ZuEOXdew-7" value="Perception of EVs" style="ellipse;whiteSpace=wrap;html=1;aspect=fixed;" parent="9ZlYClMZQ8yBe7wbKxgT-1" vertex="1">
          <mxGeometry x="910" y="230" width="80" height="80" as="geometry" />
        </mxCell>
        <mxCell id="t6mNhy_cSAT_ZuEOXdew-8" value="" style="edgeStyle=orthogonalEdgeStyle;rounded=0;orthogonalLoop=1;jettySize=auto;html=1;" parent="9ZlYClMZQ8yBe7wbKxgT-1" source="t6mNhy_cSAT_ZuEOXdew-9" target="t6mNhy_cSAT_ZuEOXdew-10" edge="1">
          <mxGeometry relative="1" as="geometry" />
        </mxCell>
        <mxCell id="t6mNhy_cSAT_ZuEOXdew-9" value="EV Re-purchase Intention" style="ellipse;whiteSpace=wrap;html=1;aspect=fixed;" parent="9ZlYClMZQ8yBe7wbKxgT-1" vertex="1">
          <mxGeometry x="910" y="360" width="80" height="80" as="geometry" />
        </mxCell>
        <mxCell id="t6mNhy_cSAT_ZuEOXdew-10" value="Actual Usage of EVs" style="ellipse;whiteSpace=wrap;html=1;aspect=fixed;" parent="9ZlYClMZQ8yBe7wbKxgT-1" vertex="1">
          <mxGeometry x="910" y="500" width="80" height="80" as="geometry" />
        </mxCell>
        <mxCell id="t6mNhy_cSAT_ZuEOXdew-11" value="&lt;b&gt;&lt;i&gt;Feedback Into Model&lt;/i&gt;&lt;/b&gt;" style="text;strokeColor=none;align=center;fillColor=none;html=1;verticalAlign=middle;whiteSpace=wrap;rounded=0;rotation=-90;" parent="9ZlYClMZQ8yBe7wbKxgT-1" vertex="1">
          <mxGeometry x="790" y="350" width="150" height="20" as="geometry" />
        </mxCell>
        <mxCell id="hY69r7Rup_vwp4NUXBPi-0" value="" style="endArrow=classic;html=1;rounded=0;exitX=0.5;exitY=1;exitDx=0;exitDy=0;entryX=0.5;entryY=1;entryDx=0;entryDy=0;" parent="9ZlYClMZQ8yBe7wbKxgT-1" target="hY69r7Rup_vwp4NUXBPi-1" edge="1">
          <mxGeometry width="50" height="50" relative="1" as="geometry">
            <mxPoint x="660" y="310" as="sourcePoint" />
            <mxPoint x="658" y="190" as="targetPoint" />
          </mxGeometry>
        </mxCell>
        <mxCell id="hY69r7Rup_vwp4NUXBPi-1" value="INT" style="rounded=0;whiteSpace=wrap;html=1;" parent="9ZlYClMZQ8yBe7wbKxgT-1" vertex="1">
          <mxGeometry x="632.5" y="359" width="55" height="20" as="geometry" />
        </mxCell>
        <mxCell id="JXPZanARlziHW8ExxZZq-0" value="PIR-2" style="rounded=0;whiteSpace=wrap;html=1;" vertex="1" parent="9ZlYClMZQ8yBe7wbKxgT-1">
          <mxGeometry x="140" y="655" width="50" height="20" as="geometry" />
        </mxCell>
        <mxCell id="JXPZanARlziHW8ExxZZq-1" value="PIR-1" style="rounded=0;whiteSpace=wrap;html=1;" vertex="1" parent="9ZlYClMZQ8yBe7wbKxgT-1">
          <mxGeometry x="140" y="635" width="50" height="20" as="geometry" />
        </mxCell>
        <mxCell id="JXPZanARlziHW8ExxZZq-2" value="" style="endArrow=classic;html=1;rounded=0;exitX=-0.01;exitY=0.503;exitDx=0;exitDy=0;exitPerimeter=0;entryX=1.018;entryY=0.488;entryDx=0;entryDy=0;entryPerimeter=0;" edge="1" parent="9ZlYClMZQ8yBe7wbKxgT-1" target="JXPZanARlziHW8ExxZZq-1">
          <mxGeometry width="50" height="50" relative="1" as="geometry">
            <mxPoint x="229" y="655" as="sourcePoint" />
            <mxPoint x="190" y="635" as="targetPoint" />
          </mxGeometry>
        </mxCell>
        <mxCell id="JXPZanARlziHW8ExxZZq-3" value="" style="endArrow=classic;html=1;rounded=0;exitX=-0.002;exitY=0.512;exitDx=0;exitDy=0;exitPerimeter=0;entryX=1.004;entryY=0.506;entryDx=0;entryDy=0;entryPerimeter=0;" edge="1" parent="9ZlYClMZQ8yBe7wbKxgT-1" target="JXPZanARlziHW8ExxZZq-0">
          <mxGeometry width="50" height="50" relative="1" as="geometry">
            <mxPoint x="230" y="656" as="sourcePoint" />
            <mxPoint x="130" y="700" as="targetPoint" />
          </mxGeometry>
        </mxCell>
      </root>
    </mxGraphModel>
  </diagram>
</mxfile>
